<svg width="32" height="32" viewBox="0 0 32 32" fill="none" xmlns="http://www.w3.org/2000/svg">
<path fill-rule="evenodd" clip-rule="evenodd" d="M7.33366 8C7.33366 5.79086 9.12452 4 11.3337 4C13.5428 4 15.3337 5.79086 15.3337 8C15.3337 10.2091 13.5428 12 11.3337 12C9.12452 12 7.33366 10.2091 7.33366 8ZM11.3337 6.66667C10.5973 6.66667 10.0003 7.26362 10.0003 8C10.0003 8.73638 10.5973 9.33333 11.3337 9.33333C12.07 9.33333 12.667 8.73638 12.667 8C12.667 7.26362 12.07 6.66667 11.3337 6.66667Z" fill="#060A2D"/>
<path fill-rule="evenodd" clip-rule="evenodd" d="M16.667 8C16.667 5.79086 18.4579 4 20.667 4C22.8761 4 24.667 5.79086 24.667 8C24.667 10.2091 22.8761 12 20.667 12C18.4579 12 16.667 10.2091 16.667 8ZM20.667 6.66667C19.9306 6.66667 19.3337 7.26362 19.3337 8C19.3337 8.73638 19.9306 9.33333 20.667 9.33333C21.4034 9.33333 22.0003 8.73638 22.0003 8C22.0003 7.26362 21.4034 6.66667 20.667 6.66667Z" fill="#060A2D"/>
<path fill-rule="evenodd" clip-rule="evenodd" d="M0.666992 14.6667C0.666992 12.4575 2.45785 10.6667 4.66699 10.6667C6.87613 10.6667 8.66699 12.4575 8.66699 14.6667C8.66699 16.8758 6.87613 18.6667 4.66699 18.6667C2.45785 18.6667 0.666992 16.8758 0.666992 14.6667ZM4.66699 13.3333C3.93061 13.3333 3.33366 13.9303 3.33366 14.6667C3.33366 15.403 3.93061 16 4.66699 16C5.40337 16 6.00033 15.403 6.00033 14.6667C6.00033 13.9303 5.40337 13.3333 4.66699 13.3333Z" fill="#060A2D"/>
<path fill-rule="evenodd" clip-rule="evenodd" d="M16.0002 13.3333C12.5922 13.3333 10.2371 15.8783 8.97435 18.4037C8.32688 19.6987 7.9062 21.0918 7.74047 22.3703C7.58041 23.605 7.63488 24.9174 8.14101 25.9296C8.60611 26.8598 9.29608 27.5059 10.2262 27.7485C11.0642 27.9671 11.8949 27.7977 12.5332 27.6154C12.8677 27.5198 13.2037 27.4034 13.5143 27.2938L13.6757 27.2367C13.9359 27.1445 14.1807 27.0578 14.4304 26.9773C15.0341 26.7826 15.5431 26.6667 16.0002 26.6667C16.4574 26.6667 16.9664 26.7826 17.5701 26.9773C17.8197 27.0578 18.0646 27.1445 18.3248 27.2367L18.4862 27.2938C18.7968 27.4034 19.1328 27.5198 19.4673 27.6154C20.1056 27.7977 20.9362 27.9671 21.7743 27.7485C22.7044 27.5059 23.3944 26.8598 23.8595 25.9296C24.3656 24.9174 24.4201 23.605 24.26 22.3703C24.0943 21.0918 23.6736 19.6987 23.0261 18.4037C21.7634 15.8783 19.4083 13.3333 16.0002 13.3333ZM10.5261 24.737C10.3656 24.416 10.2534 23.7283 10.385 22.7131C10.511 21.7415 10.8403 20.6347 11.3595 19.5963C12.4301 17.455 14.075 16 16.0002 16C17.9255 16 19.5704 17.455 20.641 19.5963C21.1602 20.6347 21.4895 21.7415 21.6155 22.7131C21.7471 23.7283 21.6349 24.416 21.4743 24.737C21.2804 25.1249 21.1404 25.1587 21.1049 25.1673L21.1012 25.1682C20.9809 25.1996 20.7282 25.2023 20.1999 25.0513C19.9511 24.9802 19.6828 24.8882 19.3737 24.7791L19.225 24.7265C18.9645 24.6342 18.6778 24.5326 18.3888 24.4394C17.7007 24.2175 16.8764 24 16.0002 24C15.1241 24 14.2997 24.2175 13.6117 24.4394C13.3226 24.5326 13.0359 24.6342 12.7754 24.7265L12.6268 24.7791C12.3177 24.8882 12.0494 24.9802 11.8006 25.0513C11.2722 25.2023 11.0196 25.1996 10.8993 25.1682L10.8956 25.1673C10.8601 25.1587 10.7201 25.1249 10.5261 24.737Z" fill="#060A2D"/>
<path fill-rule="evenodd" clip-rule="evenodd" d="M27.3337 10.6667C25.1245 10.6667 23.3337 12.4575 23.3337 14.6667C23.3337 16.8758 25.1245 18.6667 27.3337 18.6667C29.5428 18.6667 31.3337 16.8758 31.3337 14.6667C31.3337 12.4575 29.5428 10.6667 27.3337 10.6667ZM26.0003 14.6667C26.0003 13.9303 26.5973 13.3333 27.3337 13.3333C28.07 13.3333 28.667 13.9303 28.667 14.6667C28.667 15.403 28.07 16 27.3337 16C26.5973 16 26.0003 15.403 26.0003 14.6667Z" fill="#060A2D"/>
</svg>
